solid GamerPad
facet normal 0.0 0.17364817766693036 0.9848077530122082
  outer loop
    vertex 315.30805569852384 119.19687330463094 13.064474531639151
    vertex 251.30805569852396 129.044950834753 11.327992754969843
    vertex 246.3080556985239 119.19687330463094 13.064474531639151
  endloop
endfacet
facet normal 0.0 0.17364817766693036 0.9848077530122082
  outer loop
    vertex 251.30805569852396 129.044950834753 11.327992754969843
    vertex 315.30805569852384 119.19687330463094 13.064474531639151
    vertex 319.30805569852384 129.044950834753 11.327992754969843
  endloop
endfacet
facet normal 0.0 0.17364817766693036 0.9848077530122082
  outer loop
    vertex 319.30805569852384 129.044950834753 11.327992754969843
    vertex 315.30805569852384 119.19687330463094 13.064474531639151
    vertex 324.30805569852384 119.19687330463094 13.064474531639151
  endloop
endfacet
facet normal -5.569735201059164e-16 2.265540230063698e-15 1.0
  outer loop
    vertex 255.30805569852387 76.22772652840256 13.064474531639197
    vertex 258.30805569852384 78.19687330463103 13.064474531639227
    vertex 255.30805569852387 97.19687330463103 13.064474531639164
  endloop
endfacet
facet normal -5.569735201059164e-16 2.265540230063698e-15 1.0
  outer loop
    vertex 258.30805569852384 78.19687330463103 13.064474531639227
    vertex 255.30805569852387 76.22772652840256 13.064474531639197
    vertex 276.3080556985239 76.22772652840257 13.064474531639203
  endloop
endfacet
facet normal -5.569735201059164e-16 2.265540230063698e-15 1.0
  outer loop
    vertex 258.30805569852384 78.19687330463103 13.064474531639227
    vertex 276.3080556985239 76.22772652840257 13.064474531639203
    vertex 273.3080556985239 78.19687330463104 13.064474531639227
  endloop
endfacet
facet normal -5.569735201059164e-16 2.265540230063698e-15 1.0
  outer loop
    vertex 273.3080556985239 78.19687330463104 13.064474531639227
    vertex 276.3080556985239 76.22772652840257 13.064474531639203
    vertex 276.3080556985239 78.19687330463104 13.064474531639227
  endloop
endfacet
facet normal -5.569735201059164e-16 2.265540230063698e-15 1.0
  outer loop
    vertex 258.30805569852384 97.19687330463103 13.064474531639164
    vertex 255.30805569852387 97.19687330463103 13.064474531639164
    vertex 258.30805569852384 78.19687330463103 13.064474531639227
  endloop
endfacet
facet normal 1.9639280954236386e-29 -2.144118216307333e-15 1.0
  outer loop
    vertex 276.3080556985239 105.41831345504552 13.06447453163918
    vertex 273.3080556985239 115.19687330463093 13.064474531639199
    vertex 273.3080556985239 105.41831345504552 13.06447453163918
  endloop
endfacet
facet normal 1.9639280954236386e-29 -2.144118216307333e-15 1.0
  outer loop
    vertex 273.3080556985239 115.19687330463093 13.064474531639199
    vertex 276.3080556985239 105.41831345504552 13.06447453163918
    vertex 276.3080556985239 115.19687330463093 13.064474531639199
  endloop
endfacet
facet normal -0.8920847832236108 0.42670687841150057 -0.14868079720393082
  outer loop
    vertex 251.30805569852396 129.044950834753 11.327992754969843
    vertex 248.30805569852387 119.19687330463111 1.0644745316391477
    vertex 246.3080556985239 119.19687330463094 13.064474531639151
  endloop
endfacet
facet normal 2.823927663902551e-19 0.7215593972169412 -0.6923525375759987
  outer loop
    vertex 251.30805569852396 129.044950834753 11.327992754969843
    vertex 322.30805569852384 119.19687330463111 1.0644745316391477
    vertex 248.30805569852387 119.19687330463111 1.0644745316391477
  endloop
endfacet
facet normal 2.823927663902551e-19 0.7215593972169412 -0.6923525375759987
  outer loop
    vertex 322.30805569852384 119.19687330463111 1.0644745316391477
    vertex 251.30805569852396 129.044950834753 11.327992754969843
    vertex 319.30805569852384 129.044950834753 11.327992754969843
  endloop
endfacet
facet normal -1.5666480458599501e-16 -1.388562427623821e-15 -1.0
  outer loop
    vertex 294.30805569852384 76.22772652840256 13.064474531639197
    vertex 276.3080556985239 74.19687330463101 13.064474531639203
    vertex 276.3080556985239 76.22772652840257 13.064474531639203
  endloop
endfacet
facet normal -1.5666480458599501e-16 -1.388562427623821e-15 -1.0
  outer loop
    vertex 276.3080556985239 74.19687330463101 13.064474531639203
    vertex 294.30805569852384 76.22772652840256 13.064474531639197
    vertex 294.30805569852384 74.19687330463101 13.064474531639203
  endloop
endfacet
facet normal -1.0 -1.3329787160833459e-15 -2.025681126979997e-15
  outer loop
    vertex 315.30805569852384 77.52340484297244 20.41263140113284
    vertex 315.30805569852384 97.19687330463103 13.064474531639164
    vertex 315.30805569852384 76.22772652840256 13.064474531639197
  endloop
endfacet
facet normal -1.0 -1.3329787160833459e-15 -2.025681126979997e-15
  outer loop
    vertex 315.30805569852384 97.19687330463103 13.064474531639164
    vertex 315.30805569852384 77.52340484297244 20.41263140113284
    vertex 315.3080556985238 115.19687330463123 13.769782454475465
  endloop
endfacet
facet normal -1.0 -1.3329787160833459e-15 -2.025681126979997e-15
  outer loop
    vertex 315.30805569852384 97.19687330463103 13.064474531639164
    vertex 315.3080556985238 115.19687330463123 13.769782454475465
    vertex 315.30805569852384 115.19687330463093 13.064474531639199
  endloop
endfacet
facet normal 1.0 -0.0 -0.0
  outer loop
    vertex 255.30805569852387 97.19687330463103 13.064474531639164
    vertex 255.30805569852387 77.52340484297248 20.41263140113283
    vertex 255.30805569852387 76.22772652840256 13.064474531639197
  endloop
endfacet
facet normal 1.0 -0.0 -0.0
  outer loop
    vertex 255.30805569852387 77.52340484297248 20.41263140113283
    vertex 255.30805569852387 97.19687330463103 13.064474531639164
    vertex 255.30805569852387 115.19687330463081 13.769782454473017
  endloop
endfacet
facet normal 1.0 -0.0 -0.0
  outer loop
    vertex 255.30805569852387 115.19687330463081 13.769782454473017
    vertex 255.30805569852387 97.19687330463103 13.064474531639164
    vertex 255.30805569852387 115.19687330463093 13.064474531639199
  endloop
endfacet
facet normal -0.963036560207808 -0.06420243734718681 0.26160778035409
  outer loop
    vertex 246.3080556985239 119.19687330463094 13.064474531639151
    vertex 249.30805569852387 74.19687330463101 13.064474531639203
    vertex 251.30805569852387 75.55378933694811 20.75992775646669
  endloop
endfacet
facet normal 2.021738389344721e-15 -1.0 1.7787160633275784e-13
  outer loop
    vertex 315.3080556985238 115.19687330463123 13.769782454475465
    vertex 297.30805569852384 115.19687330463093 13.064474531639199
    vertex 315.30805569852384 115.19687330463093 13.064474531639199
  endloop
endfacet
facet normal 2.021738389344721e-15 -1.0 1.7787160633275784e-13
  outer loop
    vertex 297.30805569852384 115.19687330463093 13.064474531639199
    vertex 315.3080556985238 115.19687330463123 13.769782454475465
    vertex 294.30805569852384 115.19687330463093 13.064474531639199
  endloop
endfacet
facet normal 2.021738389344721e-15 -1.0 1.7787160633275784e-13
  outer loop
    vertex 294.30805569852384 115.19687330463093 13.064474531639199
    vertex 315.3080556985238 115.19687330463123 13.769782454475465
    vertex 276.3080556985239 115.19687330463093 13.064474531639199
  endloop
endfacet
facet normal 2.021738389344721e-15 -1.0 1.7787160633275784e-13
  outer loop
    vertex 276.3080556985239 115.19687330463093 13.064474531639199
    vertex 315.3080556985238 115.19687330463123 13.769782454475465
    vertex 273.3080556985239 115.19687330463093 13.064474531639199
  endloop
endfacet
facet normal 2.021738389344721e-15 -1.0 1.7787160633275784e-13
  outer loop
    vertex 273.3080556985239 115.19687330463093 13.064474531639199
    vertex 315.3080556985238 115.19687330463123 13.769782454475465
    vertex 255.30805569852387 115.19687330463093 13.064474531639199
  endloop
endfacet
facet normal 2.021738389344721e-15 -1.0 1.7787160633275784e-13
  outer loop
    vertex 255.30805569852387 115.19687330463093 13.064474531639199
    vertex 315.3080556985238 115.19687330463123 13.769782454475465
    vertex 255.30805569852387 115.19687330463081 13.769782454473017
  endloop
endfacet
facet normal 0.8920847832236138 0.4267068784114938 -0.14868079720393126
  outer loop
    vertex 319.30805569852384 129.044950834753 11.327992754969843
    vertex 324.30805569852384 119.19687330463094 13.064474531639151
    vertex 322.30805569852384 119.19687330463111 1.0644745316391477
  endloop
endfacet
facet normal 5.138310025740613e-16 2.1962312676102843e-15 1.0
  outer loop
    vertex 310.30805569852384 76.22772652840256 13.064474531639197
    vertex 294.30805569852384 78.19687330463104 13.064474531639227
    vertex 294.30805569852384 76.22772652840256 13.064474531639197
  endloop
endfacet
facet normal 5.138310025740613e-16 2.1962312676102843e-15 1.0
  outer loop
    vertex 294.30805569852384 78.19687330463104 13.064474531639227
    vertex 310.30805569852384 76.22772652840256 13.064474531639197
    vertex 297.30805569852384 78.19687330463104 13.064474531639227
  endloop
endfacet
facet normal 5.138310025740613e-16 2.1962312676102843e-15 1.0
  outer loop
    vertex 297.30805569852384 78.19687330463104 13.064474531639227
    vertex 310.30805569852384 76.22772652840256 13.064474531639197
    vertex 312.30805569852384 78.19687330463103 13.064474531639226
  endloop
endfacet
facet normal 5.138310025740613e-16 2.1962312676102843e-15 1.0
  outer loop
    vertex 312.30805569852384 78.19687330463103 13.064474531639226
    vertex 310.30805569852384 76.22772652840256 13.064474531639197
    vertex 315.30805569852384 76.22772652840256 13.064474531639197
  endloop
endfacet
facet normal 5.138310025740613e-16 2.1962312676102843e-15 1.0
  outer loop
    vertex 312.30805569852384 78.19687330463103 13.064474531639226
    vertex 315.30805569852384 76.22772652840256 13.064474531639197
    vertex 312.30805569852384 97.19687330463103 13.064474531639164
  endloop
endfacet
facet normal 5.138310025740613e-16 2.1962312676102843e-15 1.0
  outer loop
    vertex 312.30805569852384 97.19687330463103 13.064474531639164
    vertex 315.30805569852384 76.22772652840256 13.064474531639197
    vertex 315.30805569852384 97.19687330463103 13.064474531639164
  endloop
endfacet
facet normal 2.9676226128982407e-16 0.9848077530122099 -0.1736481776669208
  outer loop
    vertex 255.30805569852387 77.52340484297248 20.41263140113283
    vertex 276.3080556985239 76.22772652840257 13.064474531639203
    vertex 255.30805569852387 76.22772652840256 13.064474531639197
  endloop
endfacet
facet normal 2.9676226128982407e-16 0.9848077530122099 -0.1736481776669208
  outer loop
    vertex 276.3080556985239 76.22772652840257 13.064474531639203
    vertex 310.30805569852384 76.22772652840256 13.064474531639197
    vertex 294.30805569852384 76.22772652840256 13.064474531639197
  endloop
endfacet
facet normal 2.9676226128982407e-16 0.9848077530122099 -0.1736481776669208
  outer loop
    vertex 310.30805569852384 76.22772652840256 13.064474531639197
    vertex 276.3080556985239 76.22772652840257 13.064474531639203
    vertex 315.30805569852384 76.22772652840256 13.064474531639197
  endloop
endfacet
facet normal 2.9676226128982407e-16 0.9848077530122099 -0.1736481776669208
  outer loop
    vertex 315.30805569852384 76.22772652840256 13.064474531639197
    vertex 276.3080556985239 76.22772652840257 13.064474531639203
    vertex 315.30805569852384 77.52340484297244 20.41263140113284
  endloop
endfacet
facet normal 2.9676226128982407e-16 0.9848077530122099 -0.1736481776669208
  outer loop
    vertex 315.30805569852384 77.52340484297244 20.41263140113284
    vertex 276.3080556985239 76.22772652840257 13.064474531639203
    vertex 255.30805569852387 77.52340484297248 20.41263140113283
  endloop
endfacet
facet normal -1.984429285024405e-14 0.1736481776669332 0.9848077530122077
  outer loop
    vertex 246.3080556985239 119.19687330463094 13.064474531639151
    vertex 255.30805569852387 115.19687330463081 13.769782454473017
    vertex 315.30805569852384 119.19687330463094 13.064474531639151
  endloop
endfacet
facet normal -1.984429285024405e-14 0.1736481776669332 0.9848077530122077
  outer loop
    vertex 255.30805569852387 115.19687330463081 13.769782454473017
    vertex 246.3080556985239 119.19687330463094 13.064474531639151
    vertex 251.30805569852387 75.55378933694811 20.75992775646669
  endloop
endfacet
facet normal -1.984429285024405e-14 0.1736481776669332 0.9848077530122077
  outer loop
    vertex 255.30805569852387 115.19687330463081 13.769782454473017
    vertex 251.30805569852387 75.55378933694811 20.75992775646669
    vertex 255.30805569852387 75.55378933694811 20.75992775646669
  endloop
endfacet
facet normal -1.984429285024405e-14 0.1736481776669332 0.9848077530122077
  outer loop
    vertex 255.30805569852387 115.19687330463081 13.769782454473017
    vertex 255.30805569852387 75.55378933694811 20.75992775646669
    vertex 255.30805569852387 77.52340484297248 20.41263140113283
  endloop
endfacet
facet normal -1.984429285024405e-14 0.1736481776669332 0.9848077530122077
  outer loop
    vertex 315.30805569852384 119.19687330463094 13.064474531639151
    vertex 255.30805569852387 115.19687330463081 13.769782454473017
    vertex 315.3080556985238 115.19687330463123 13.769782454475465
  endloop
endfacet
facet normal 0.0 -0.9848077530122082 0.17364817766693036
  outer loop
    vertex 255.30805569852387 75.55378933694811 20.75992775646669
    vertex 249.30805569852387 74.19687330463101 13.064474531639203
    vertex 255.30805569852387 74.19687330463101 13.064474531639203
  endloop
endfacet
facet normal 0.0 -0.9848077530122082 0.17364817766693036
  outer loop
    vertex 249.30805569852387 74.19687330463101 13.064474531639203
    vertex 255.30805569852387 75.55378933694811 20.75992775646669
    vertex 251.30805569852387 75.55378933694811 20.75992775646669
  endloop
endfacet
facet normal -1.113798970261234e-28 1.0 1.7368051441479793e-14
  outer loop
    vertex 312.30805569852384 97.19687330463103 13.064474531639164
    vertex 315.30805569852384 97.1968733046312 2.464474531639157
    vertex 312.30805569852384 97.1968733046312 2.464474531639157
  endloop
endfacet
facet normal -1.113798970261234e-28 1.0 1.7368051441479793e-14
  outer loop
    vertex 315.30805569852384 97.1968733046312 2.464474531639157
    vertex 312.30805569852384 97.19687330463103 13.064474531639164
    vertex 315.30805569852384 97.19687330463103 13.064474531639164
  endloop
endfacet
facet normal 1.0 0.0 0.0
  outer loop
    vertex 297.30805569852384 78.19687330463127 2.4644745316391594
    vertex 297.30805569852384 87.60218574171256 13.064474531639169
    vertex 297.30805569852384 78.19687330463104 13.064474531639227
  endloop
endfacet
facet normal 1.0 0.0 0.0
  outer loop
    vertex 297.30805569852384 87.60218574171256 13.064474531639169
    vertex 297.30805569852384 78.19687330463127 2.4644745316391594
    vertex 297.30805569852384 87.60218574171276 2.46447453163915
  endloop
endfacet
facet normal -1.0 0.0 0.0
  outer loop
    vertex 292.30805569852384 113.19687330463105 2.4644745316391585
    vertex 292.30805569852384 99.19687330463114 1.0644745316391584
    vertex 292.30805569852384 99.19687330463114 2.464474531639162
  endloop
endfacet
facet normal -1.0 0.0 0.0
  outer loop
    vertex 292.30805569852384 99.19687330463114 1.0644745316391584
    vertex 292.30805569852384 113.19687330463105 2.4644745316391585
    vertex 292.30805569852384 113.19687330463105 1.0644745316391562
  endloop
endfacet
facet normal -1.0 0.0 0.0
  outer loop
    vertex 272.3080556985239 94.19687330463117 2.464474531639163
    vertex 272.3080556985239 80.19687330463125 1.0644745316391733
    vertex 272.3080556985239 80.19687330463124 2.4644745316391683
  endloop
endfacet
facet normal -1.0 0.0 0.0
  outer loop
    vertex 272.3080556985239 80.19687330463125 1.0644745316391733
    vertex 272.3080556985239 94.19687330463117 2.464474531639163
    vertex 272.3080556985239 94.19687330463118 1.0644745316391613
  endloop
endfacet
facet normal -1.0 0.0 0.0
  outer loop
    vertex 312.30805569852384 97.19687330463103 13.064474531639164
    vertex 312.30805569852384 78.19687330463125 2.4644745316391594
    vertex 312.30805569852384 78.19687330463103 13.064474531639226
  endloop
endfacet
facet normal -1.0 0.0 0.0
  outer loop
    vertex 312.30805569852384 78.19687330463125 2.4644745316391594
    vertex 312.30805569852384 97.19687330463103 13.064474531639164
    vertex 312.30805569852384 80.19687330463142 2.46447453163917
  endloop
endfacet
facet normal -1.0 0.0 0.0
  outer loop
    vertex 312.30805569852384 80.19687330463142 2.46447453163917
    vertex 312.30805569852384 97.19687330463103 13.064474531639164
    vertex 312.30805569852384 94.19687330463134 2.4644745316391616
  endloop
endfacet
facet normal -1.0 0.0 0.0
  outer loop
    vertex 312.30805569852384 94.19687330463134 2.4644745316391616
    vertex 312.30805569852384 97.19687330463103 13.064474531639164
    vertex 312.30805569852384 97.1968733046312 2.464474531639157
  endloop
endfacet
facet normal -0.9842680723871801 -0.06561787149247887 -0.16404467873119702
  outer loop
    vertex 246.3080556985239 119.19687330463094 13.064474531639151
    vertex 251.30805569852387 74.19687330463131 1.0644745316391493
    vertex 249.30805569852387 74.19687330463101 13.064474531639203
  endloop
endfacet
facet normal -0.9842680723871801 -0.06561787149247887 -0.16404467873119702
  outer loop
    vertex 251.30805569852387 74.19687330463131 1.0644745316391493
    vertex 246.3080556985239 119.19687330463094 13.064474531639151
    vertex 248.30805569852387 119.19687330463111 1.0644745316391477
  endloop
endfacet
facet normal 0.0 1.0 -9.15933995315754e-16
  outer loop
    vertex 278.3080556985239 99.19687330463114 2.464474531639162
    vertex 292.30805569852384 99.19687330463114 1.0644745316391584
    vertex 278.3080556985239 99.19687330463114 1.0644745316391584
  endloop
endfacet
facet normal 0.0 1.0 -9.15933995315754e-16
  outer loop
    vertex 292.30805569852384 99.19687330463114 1.0644745316391584
    vertex 278.3080556985239 99.19687330463114 2.464474531639162
    vertex 292.30805569852384 99.19687330463114 2.464474531639162
  endloop
endfacet
facet normal 1.0 0.0 0.0
  outer loop
    vertex 276.3080556985239 78.19687330463123 4.064474531639175
    vertex 276.3080556985239 87.60218574171256 13.064474531639169
    vertex 276.3080556985239 78.19687330463104 13.064474531639227
  endloop
endfacet
facet normal 1.0 0.0 0.0
  outer loop
    vertex 276.3080556985239 87.60218574171256 13.064474531639169
    vertex 276.3080556985239 78.19687330463123 4.064474531639175
    vertex 276.3080556985239 78.19687330463127 2.4644745316391594
  endloop
endfacet
facet normal 1.0 0.0 0.0
  outer loop
    vertex 276.3080556985239 87.60218574171256 13.064474531639169
    vertex 276.3080556985239 78.19687330463127 2.4644745316391594
    vertex 276.3080556985239 87.60218574171276 2.46447453163915
  endloop
endfacet
facet normal -4.798581726740218e-18 -1.0 -2.0955459589799827e-14
  outer loop
    vertex 273.3080556985239 115.19687330463093 13.064474531639199
    vertex 255.30805569852387 115.19687330463111 2.4644745316391425
    vertex 273.3080556985239 115.19687330463111 2.4644745316391425
  endloop
endfacet
facet normal -4.798581726740218e-18 -1.0 -2.0955459589799827e-14
  outer loop
    vertex 255.30805569852387 115.19687330463111 2.4644745316391425
    vertex 273.3080556985239 115.19687330463093 13.064474531639199
    vertex 255.30805569852387 115.19687330463093 13.064474531639199
  endloop
endfacet
facet normal -1.0 0.0 0.0
  outer loop
    vertex 313.30805569852384 113.19687330463105 2.4644745316391585
    vertex 313.30805569852384 99.19687330463114 1.0644745316391584
    vertex 313.30805569852384 99.19687330463114 2.464474531639162
  endloop
endfacet
facet normal -1.0 0.0 0.0
  outer loop
    vertex 313.30805569852384 99.19687330463114 1.0644745316391584
    vertex 313.30805569852384 113.19687330463105 2.4644745316391585
    vertex 313.30805569852384 113.19687330463105 1.0644745316391562
  endloop
endfacet
facet normal 1.0 0.0 0.0
  outer loop
    vertex 298.3080556985239 80.19687330463144 1.064474531639174
    vertex 298.3080556985239 94.19687330463134 2.4644745316391616
    vertex 298.3080556985239 80.19687330463142 2.46447453163917
  endloop
endfacet
facet normal 1.0 0.0 0.0
  outer loop
    vertex 298.3080556985239 94.19687330463134 2.4644745316391616
    vertex 298.3080556985239 80.19687330463144 1.064474531639174
    vertex 298.3080556985239 94.19687330463137 1.0644745316391626
  endloop
endfacet
facet normal 2.425336865986418e-18 -1.0 -2.3252233471993116e-14
  outer loop
    vertex 319.30805569852384 74.19687330463131 1.0644745316391493
    vertex 294.30805569852384 74.1968733046313 4.0644745316391715
    vertex 251.30805569852387 74.19687330463131 1.0644745316391493
  endloop
endfacet
facet normal 2.425336865986418e-18 -1.0 -2.3252233471993116e-14
  outer loop
    vertex 294.30805569852384 74.1968733046313 4.0644745316391715
    vertex 319.30805569852384 74.19687330463131 1.0644745316391493
    vertex 321.30805569852384 74.19687330463101 13.064474531639203
  endloop
endfacet
facet normal 2.425336865986418e-18 -1.0 -2.3252233471993116e-14
  outer loop
    vertex 294.30805569852384 74.1968733046313 4.0644745316391715
    vertex 321.30805569852384 74.19687330463101 13.064474531639203
    vertex 294.30805569852384 74.19687330463101 13.064474531639203
  endloop
endfacet
facet normal 2.425336865986418e-18 -1.0 -2.3252233471993116e-14
  outer loop
    vertex 251.30805569852387 74.19687330463131 1.0644745316391493
    vertex 276.3080556985239 74.1968733046313 4.0644745316391715
    vertex 249.30805569852387 74.19687330463101 13.064474531639203
  endloop
endfacet
facet normal 2.425336865986418e-18 -1.0 -2.3252233471993116e-14
  outer loop
    vertex 276.3080556985239 74.1968733046313 4.0644745316391715
    vertex 251.30805569852387 74.19687330463131 1.0644745316391493
    vertex 294.30805569852384 74.1968733046313 4.0644745316391715
  endloop
endfacet
facet normal 2.425336865986418e-18 -1.0 -2.3252233471993116e-14
  outer loop
    vertex 249.30805569852387 74.19687330463101 13.064474531639203
    vertex 276.3080556985239 74.1968733046313 4.0644745316391715
    vertex 276.3080556985239 74.19687330463101 13.064474531639203
  endloop
endfacet
facet normal 2.425336865986418e-18 -1.0 -2.3252233471993116e-14
  outer loop
    vertex 249.30805569852387 74.19687330463101 13.064474531639203
    vertex 276.3080556985239 74.19687330463101 13.064474531639203
    vertex 255.30805569852387 74.19687330463101 13.064474531639203
  endloop
endfacet
facet normal -1.0 0.0 0.0
  outer loop
    vertex 292.3080556985239 94.19687330463117 2.464474531639163
    vertex 292.3080556985239 80.19687330463125 1.0644745316391733
    vertex 292.3080556985239 80.19687330463124 2.4644745316391683
  endloop
endfacet
facet normal -1.0 0.0 0.0
  outer loop
    vertex 292.3080556985239 80.19687330463125 1.0644745316391733
    vertex 292.3080556985239 94.19687330463117 2.464474531639163
    vertex 292.3080556985239 94.19687330463118 1.0644745316391613
  endloop
endfacet
facet normal -1.0 0.0 0.0
  outer loop
    vertex 271.3080556985239 113.19687330463105 2.4644745316391585
    vertex 271.3080556985239 99.19687330463114 1.0644745316391584
    vertex 271.3080556985239 99.19687330463114 2.464474531639162
  endloop
endfacet
facet normal -1.0 0.0 0.0
  outer loop
    vertex 271.3080556985239 99.19687330463114 1.0644745316391584
    vertex 271.3080556985239 113.19687330463105 2.4644745316391585
    vertex 271.3080556985239 113.19687330463105 1.0644745316391562
  endloop
endfacet
facet normal -1.0 0.0 0.0
  outer loop
    vertex 273.3080556985239 115.19687330463093 13.064474531639199
    vertex 273.3080556985239 105.41831345504572 2.46447453163915
    vertex 273.3080556985239 105.41831345504552 13.06447453163918
  endloop
endfacet
facet normal -1.0 0.0 0.0
  outer loop
    vertex 273.3080556985239 105.41831345504572 2.46447453163915
    vertex 273.3080556985239 115.19687330463093 13.064474531639199
    vertex 273.3080556985239 115.19687330463111 2.4644745316391425
  endloop
endfacet
facet normal 0.0 1.0 -9.15933995315754e-16
  outer loop
    vertex 299.30805569852384 99.19687330463114 2.464474531639162
    vertex 313.30805569852384 99.19687330463114 1.0644745316391584
    vertex 299.30805569852384 99.19687330463114 1.0644745316391584
  endloop
endfacet
facet normal 0.0 1.0 -9.15933995315754e-16
  outer loop
    vertex 313.30805569852384 99.19687330463114 1.0644745316391584
    vertex 299.30805569852384 99.19687330463114 2.464474531639162
    vertex 313.30805569852384 99.19687330463114 2.464474531639162
  endloop
endfacet
facet normal -1.0 0.0 0.0
  outer loop
    vertex 312.30805569852384 94.19687330463134 2.4644745316391616
    vertex 312.30805569852384 80.19687330463144 1.064474531639174
    vertex 312.30805569852384 80.19687330463142 2.46447453163917
  endloop
endfacet
facet normal -1.0 0.0 0.0
  outer loop
    vertex 312.30805569852384 80.19687330463144 1.064474531639174
    vertex 312.30805569852384 94.19687330463134 2.4644745316391616
    vertex 312.30805569852384 94.19687330463137 1.0644745316391626
  endloop
endfacet
facet normal 0.0 -1.0 9.15933995315754e-16
  outer loop
    vertex 292.30805569852384 113.19687330463105 2.4644745316391585
    vertex 278.3080556985239 113.19687330463105 1.0644745316391562
    vertex 292.30805569852384 113.19687330463105 1.0644745316391562
  endloop
endfacet
facet normal 0.0 -1.0 9.15933995315754e-16
  outer loop
    vertex 278.3080556985239 113.19687330463105 1.0644745316391562
    vertex 292.30805569852384 113.19687330463105 2.4644745316391585
    vertex 278.3080556985239 113.19687330463105 2.4644745316391585
  endloop
endfacet
facet normal -9.819640477117764e-30 5.467848396278894e-15 1.0
  outer loop
    vertex 276.3080556985239 78.19687330463104 13.064474531639227
    vertex 273.3080556985239 87.60218574171256 13.064474531639169
    vertex 273.3080556985239 78.19687330463104 13.064474531639227
  endloop
endfacet
facet normal -9.819640477117764e-30 5.467848396278894e-15 1.0
  outer loop
    vertex 273.3080556985239 87.60218574171256 13.064474531639169
    vertex 276.3080556985239 78.19687330463104 13.064474531639227
    vertex 276.3080556985239 87.60218574171256 13.064474531639169
  endloop
endfacet
facet normal 3.0748622797757396e-16 0.17364817766691804 0.9848077530122102
  outer loop
    vertex 319.30805569852384 75.55378933694811 20.75992775646669
    vertex 255.30805569852387 77.52340484297248 20.41263140113283
    vertex 255.30805569852387 75.55378933694811 20.75992775646669
  endloop
endfacet
facet normal 3.0748622797757396e-16 0.17364817766691804 0.9848077530122102
  outer loop
    vertex 255.30805569852387 77.52340484297248 20.41263140113283
    vertex 319.30805569852384 75.55378933694811 20.75992775646669
    vertex 315.30805569852384 77.52340484297244 20.41263140113284
  endloop
endfacet
facet normal 3.0748622797757396e-16 0.17364817766691804 0.9848077530122102
  outer loop
    vertex 315.30805569852384 77.52340484297244 20.41263140113284
    vertex 319.30805569852384 75.55378933694811 20.75992775646669
    vertex 315.30805569852384 119.19687330463094 13.064474531639151
  endloop
endfacet
facet normal 3.0748622797757396e-16 0.17364817766691804 0.9848077530122102
  outer loop
    vertex 315.30805569852384 119.19687330463094 13.064474531639151
    vertex 319.30805569852384 75.55378933694811 20.75992775646669
    vertex 324.30805569852384 119.19687330463094 13.064474531639151
  endloop
endfacet
facet normal 3.0748622797757396e-16 0.17364817766691804 0.9848077530122102
  outer loop
    vertex 315.30805569852384 119.19687330463094 13.064474531639151
    vertex 315.3080556985238 115.19687330463123 13.769782454475465
    vertex 315.30805569852384 77.52340484297244 20.41263140113284
  endloop
endfacet
facet normal 0.0 -1.0 9.15933995315754e-16
  outer loop
    vertex 271.3080556985239 113.19687330463105 2.4644745316391585
    vertex 257.30805569852384 113.19687330463105 1.0644745316391562
    vertex 271.3080556985239 113.19687330463105 1.0644745316391562
  endloop
endfacet
facet normal 0.0 -1.0 9.15933995315754e-16
  outer loop
    vertex 257.30805569852384 113.19687330463105 1.0644745316391562
    vertex 271.3080556985239 113.19687330463105 2.4644745316391585
    vertex 257.30805569852384 113.19687330463105 2.4644745316391585
  endloop
endfacet
facet normal 0.0 -1.0 9.15933995315754e-16
  outer loop
    vertex 276.3080556985239 105.41831345504552 13.06447453163918
    vertex 273.3080556985239 105.41831345504572 2.46447453163915
    vertex 276.3080556985239 105.41831345504572 2.46447453163915
  endloop
endfacet
facet normal 0.0 -1.0 9.15933995315754e-16
  outer loop
    vertex 273.3080556985239 105.41831345504572 2.46447453163915
    vertex 276.3080556985239 105.41831345504552 13.06447453163918
    vertex 273.3080556985239 105.41831345504552 13.06447453163918
  endloop
endfacet
facet normal 1.0 0.0 0.0
  outer loop
    vertex 276.3080556985239 105.41831345504572 2.46447453163915
    vertex 276.3080556985239 115.19687330463093 13.064474531639199
    vertex 276.3080556985239 105.41831345504552 13.06447453163918
  endloop
endfacet
facet normal 1.0 0.0 0.0
  outer loop
    vertex 276.3080556985239 115.19687330463093 13.064474531639199
    vertex 276.3080556985239 105.41831345504572 2.46447453163915
    vertex 276.3080556985239 115.19687330463111 2.4644745316391425
  endloop
endfacet
facet normal 1.0 0.0 0.0
  outer loop
    vertex 276.3080556985239 115.19687330463093 13.064474531639199
    vertex 276.3080556985239 115.19687330463111 2.4644745316391425
    vertex 276.3080556985239 115.19687330463114 3.064474531639148
  endloop
endfacet
facet normal 1.0 -0.0 -0.0
  outer loop
    vertex 276.3080556985239 74.1968733046313 4.0644745316391715
    vertex 276.3080556985239 76.22772652840257 13.064474531639203
    vertex 276.3080556985239 74.19687330463101 13.064474531639203
  endloop
endfacet
facet normal 1.0 -0.0 -0.0
  outer loop
    vertex 276.3080556985239 76.22772652840257 13.064474531639203
    vertex 276.3080556985239 74.1968733046313 4.0644745316391715
    vertex 276.3080556985239 78.19687330463123 4.064474531639175
  endloop
endfacet
facet normal 1.0 -0.0 -0.0
  outer loop
    vertex 276.3080556985239 76.22772652840257 13.064474531639203
    vertex 276.3080556985239 78.19687330463123 4.064474531639175
    vertex 276.3080556985239 78.19687330463104 13.064474531639227
  endloop
endfacet
facet normal 1.0 0.0 0.0
  outer loop
    vertex 299.30805569852384 113.19687330463105 1.0644745316391562
    vertex 299.30805569852384 99.19687330463114 2.464474531639162
    vertex 299.30805569852384 99.19687330463114 1.0644745316391584
  endloop
endfacet
facet normal 1.0 0.0 0.0
  outer loop
    vertex 299.30805569852384 99.19687330463114 2.464474531639162
    vertex 299.30805569852384 113.19687330463105 1.0644745316391562
    vertex 299.30805569852384 113.19687330463105 2.4644745316391585
  endloop
endfacet
facet normal -1.0 0.0 0.0
  outer loop
    vertex 273.3080556985239 87.60218574171256 13.064474531639169
    vertex 273.3080556985239 78.19687330463127 2.4644745316391594
    vertex 273.3080556985239 78.19687330463104 13.064474531639227
  endloop
endfacet
facet normal -1.0 0.0 0.0
  outer loop
    vertex 273.3080556985239 78.19687330463127 2.4644745316391594
    vertex 273.3080556985239 87.60218574171256 13.064474531639169
    vertex 273.3080556985239 87.60218574171276 2.46447453163915
  endloop
endfacet
facet normal 1.958310057324934e-17 9.15933995315754e-16 1.0
  outer loop
    vertex 292.3080556985239 94.19687330463117 2.464474531639163
    vertex 278.3080556985239 99.19687330463114 2.464474531639162
    vertex 278.3080556985239 94.19687330463117 2.464474531639163
  endloop
endfacet
facet normal 1.958310057324934e-17 9.15933995315754e-16 1.0
  outer loop
    vertex 278.3080556985239 99.19687330463114 2.464474531639162
    vertex 292.3080556985239 94.19687330463117 2.464474531639163
    vertex 292.30805569852384 99.19687330463114 2.464474531639162
  endloop
endfacet
facet normal 1.958310057324934e-17 9.15933995315754e-16 1.0
  outer loop
    vertex 292.30805569852384 99.19687330463114 2.464474531639162
    vertex 292.3080556985239 94.19687330463117 2.464474531639163
    vertex 292.30805569852384 113.19687330463105 2.4644745316391585
  endloop
endfacet
facet normal 1.958310057324934e-17 9.15933995315754e-16 1.0
  outer loop
    vertex 276.3080556985239 78.19687330463127 2.4644745316391594
    vertex 278.3080556985239 80.19687330463124 2.4644745316391683
    vertex 276.3080556985239 87.60218574171276 2.46447453163915
  endloop
endfacet
facet normal 1.958310057324934e-17 9.15933995315754e-16 1.0
  outer loop
    vertex 278.3080556985239 80.19687330463124 2.4644745316391683
    vertex 276.3080556985239 78.19687330463127 2.4644745316391594
    vertex 294.30805569852384 78.19687330463127 2.4644745316391594
  endloop
endfacet
facet normal 1.958310057324934e-17 9.15933995315754e-16 1.0
  outer loop
    vertex 276.3080556985239 87.60218574171276 2.46447453163915
    vertex 278.3080556985239 80.19687330463124 2.4644745316391683
    vertex 276.3080556985239 105.41831345504572 2.46447453163915
  endloop
endfacet
facet normal 1.958310057324934e-17 9.15933995315754e-16 1.0
  outer loop
    vertex 276.3080556985239 105.41831345504572 2.46447453163915
    vertex 278.3080556985239 80.19687330463124 2.4644745316391683
    vertex 276.3080556985239 115.19687330463111 2.4644745316391425
  endloop
endfacet
facet normal 1.958310057324934e-17 9.15933995315754e-16 1.0
  outer loop
    vertex 278.3080556985239 80.19687330463124 2.4644745316391683
    vertex 294.30805569852384 78.19687330463127 2.4644745316391594
    vertex 292.3080556985239 80.19687330463124 2.4644745316391683
  endloop
endfacet
facet normal 1.958310057324934e-17 9.15933995315754e-16 1.0
  outer loop
    vertex 292.3080556985239 80.19687330463124 2.4644745316391683
    vertex 294.30805569852384 78.19687330463127 2.4644745316391594
    vertex 292.3080556985239 94.19687330463117 2.464474531639163
  endloop
endfacet
facet normal 1.958310057324934e-17 9.15933995315754e-16 1.0
  outer loop
    vertex 276.3080556985239 115.19687330463111 2.4644745316391425
    vertex 278.3080556985239 113.19687330463105 2.4644745316391585
    vertex 294.30805569852384 115.19687330463111 2.4644745316391425
  endloop
endfacet
facet normal 1.958310057324934e-17 9.15933995315754e-16 1.0
  outer loop
    vertex 278.3080556985239 113.19687330463105 2.4644745316391585
    vertex 276.3080556985239 115.19687330463111 2.4644745316391425
    vertex 278.3080556985239 80.19687330463124 2.4644745316391683
  endloop
endfacet
facet normal 1.958310057324934e-17 9.15933995315754e-16 1.0
  outer loop
    vertex 278.3080556985239 113.19687330463105 2.4644745316391585
    vertex 278.3080556985239 80.19687330463124 2.4644745316391683
    vertex 278.3080556985239 94.19687330463117 2.464474531639163
  endloop
endfacet
facet normal 1.958310057324934e-17 9.15933995315754e-16 1.0
  outer loop
    vertex 278.3080556985239 113.19687330463105 2.4644745316391585
    vertex 278.3080556985239 94.19687330463117 2.464474531639163
    vertex 278.3080556985239 99.19687330463114 2.464474531639162
  endloop
endfacet
facet normal 1.958310057324934e-17 9.15933995315754e-16 1.0
  outer loop
    vertex 294.30805569852384 115.19687330463111 2.4644745316391425
    vertex 278.3080556985239 113.19687330463105 2.4644745316391585
    vertex 292.30805569852384 113.19687330463105 2.4644745316391585
  endloop
endfacet
facet normal 1.958310057324934e-17 9.15933995315754e-16 1.0
  outer loop
    vertex 294.30805569852384 115.19687330463111 2.4644745316391425
    vertex 292.30805569852384 113.19687330463105 2.4644745316391585
    vertex 292.3080556985239 94.19687330463117 2.464474531639163
  endloop
endfacet
facet normal 1.958310057324934e-17 9.15933995315754e-16 1.0
  outer loop
    vertex 294.30805569852384 115.19687330463111 2.4644745316391425
    vertex 292.3080556985239 94.19687330463117 2.464474531639163
    vertex 294.30805569852384 78.19687330463127 2.4644745316391594
  endloop
endfacet
facet normal 1.958310057324934e-17 9.15933995315754e-16 1.0
  outer loop
    vertex 294.30805569852384 115.19687330463111 2.4644745316391425
    vertex 294.30805569852384 78.19687330463127 2.4644745316391594
    vertex 294.30805569852384 87.60218574171276 2.46447453163915
  endloop
endfacet
facet normal 1.958310057324934e-17 9.15933995315754e-16 1.0
  outer loop
    vertex 294.30805569852384 115.19687330463111 2.4644745316391425
    vertex 294.30805569852384 87.60218574171276 2.46447453163915
    vertex 294.30805569852384 105.41831345504572 2.46447453163915
  endloop
endfacet
facet normal 0.963036560207808 -0.06420243734718681 0.26160778035409
  outer loop
    vertex 324.30805569852384 119.19687330463094 13.064474531639151
    vertex 319.30805569852384 75.55378933694811 20.75992775646669
    vertex 321.30805569852384 74.19687330463101 13.064474531639203
  endloop
endfacet
facet normal 0.0 -0.9848077530122082 0.17364817766693036
  outer loop
    vertex 319.30805569852384 75.55378933694811 20.75992775646669
    vertex 294.30805569852384 74.19687330463101 13.064474531639203
    vertex 321.30805569852384 74.19687330463101 13.064474531639203
  endloop
endfacet
facet normal 0.0 -0.9848077530122082 0.17364817766693036
  outer loop
    vertex 294.30805569852384 74.19687330463101 13.064474531639203
    vertex 319.30805569852384 75.55378933694811 20.75992775646669
    vertex 276.3080556985239 74.19687330463101 13.064474531639203
  endloop
endfacet
facet normal 0.0 -0.9848077530122082 0.17364817766693036
  outer loop
    vertex 276.3080556985239 74.19687330463101 13.064474531639203
    vertex 319.30805569852384 75.55378933694811 20.75992775646669
    vertex 255.30805569852387 74.19687330463101 13.064474531639203
  endloop
endfacet
facet normal 0.0 -0.9848077530122082 0.17364817766693036
  outer loop
    vertex 255.30805569852387 74.19687330463101 13.064474531639203
    vertex 319.30805569852384 75.55378933694811 20.75992775646669
    vertex 255.30805569852387 75.55378933694811 20.75992775646669
  endloop
endfacet
facet normal 0.0 9.15933995315754e-16 1.0
  outer loop
    vertex 294.30805569852384 74.1968733046313 4.0644745316391715
    vertex 276.3080556985239 78.19687330463123 4.064474531639175
    vertex 276.3080556985239 74.1968733046313 4.0644745316391715
  endloop
endfacet
facet normal 0.0 9.15933995315754e-16 1.0
  outer loop
    vertex 276.3080556985239 78.19687330463123 4.064474531639175
    vertex 294.30805569852384 74.1968733046313 4.0644745316391715
    vertex 294.30805569852384 78.19687330463123 4.064474531639175
  endloop
endfacet
facet normal 1.0 0.0 0.0
  outer loop
    vertex 258.30805569852384 78.19687330463125 2.4644745316391594
    vertex 258.30805569852384 97.19687330463103 13.064474531639164
    vertex 258.30805569852384 78.19687330463103 13.064474531639227
  endloop
endfacet
facet normal 1.0 0.0 0.0
  outer loop
    vertex 258.30805569852384 97.19687330463103 13.064474531639164
    vertex 258.30805569852384 78.19687330463125 2.4644745316391594
    vertex 258.30805569852384 80.19687330463124 2.4644745316391683
  endloop
endfacet
facet normal 1.0 0.0 0.0
  outer loop
    vertex 258.30805569852384 97.19687330463103 13.064474531639164
    vertex 258.30805569852384 80.19687330463124 2.4644745316391683
    vertex 258.30805569852384 94.19687330463117 2.464474531639163
  endloop
endfacet
facet normal 1.0 0.0 0.0
  outer loop
    vertex 258.30805569852384 97.19687330463103 13.064474531639164
    vertex 258.30805569852384 94.19687330463117 2.464474531639163
    vertex 258.30805569852384 97.1968733046312 2.464474531639157
  endloop
endfacet
facet normal -1.0 0.0 0.0
  outer loop
    vertex 294.30805569852384 115.19687330463093 13.064474531639199
    vertex 294.30805569852384 105.41831345504572 2.46447453163915
    vertex 294.30805569852384 105.41831345504552 13.06447453163918
  endloop
endfacet
facet normal -1.0 0.0 0.0
  outer loop
    vertex 294.30805569852384 105.41831345504572 2.46447453163915
    vertex 294.30805569852384 115.19687330463093 13.064474531639199
    vertex 294.30805569852384 115.19687330463111 2.4644745316391425
  endloop
endfacet
facet normal -1.0 0.0 0.0
  outer loop
    vertex 294.30805569852384 115.19687330463111 2.4644745316391425
    vertex 294.30805569852384 115.19687330463093 13.064474531639199
    vertex 294.30805569852384 115.19687330463114 3.064474531639148
  endloop
endfacet
facet normal 7.815174644466217e-18 9.15933995315754e-16 1.0
  outer loop
    vertex 297.30805569852384 78.19687330463127 2.4644745316391594
    vertex 298.3080556985239 80.19687330463142 2.46447453163917
    vertex 297.30805569852384 87.60218574171276 2.46447453163915
  endloop
endfacet
facet normal 7.815174644466217e-18 9.15933995315754e-16 1.0
  outer loop
    vertex 298.3080556985239 80.19687330463142 2.46447453163917
    vertex 297.30805569852384 78.19687330463127 2.4644745316391594
    vertex 312.30805569852384 78.19687330463125 2.4644745316391594
  endloop
endfacet
facet normal 7.815174644466217e-18 9.15933995315754e-16 1.0
  outer loop
    vertex 297.30805569852384 87.60218574171276 2.46447453163915
    vertex 298.3080556985239 80.19687330463142 2.46447453163917
    vertex 297.30805569852384 105.41831345504572 2.46447453163915
  endloop
endfacet
facet normal 7.815174644466217e-18 9.15933995315754e-16 1.0
  outer loop
    vertex 297.30805569852384 105.41831345504572 2.46447453163915
    vertex 298.3080556985239 80.19687330463142 2.46447453163917
    vertex 297.30805569852384 115.19687330463111 2.4644745316391425
  endloop
endfacet
facet normal 7.815174644466217e-18 9.15933995315754e-16 1.0
  outer loop
    vertex 298.3080556985239 80.19687330463142 2.46447453163917
    vertex 312.30805569852384 78.19687330463125 2.4644745316391594
    vertex 312.30805569852384 80.19687330463142 2.46447453163917
  endloop
endfacet
facet normal 7.815174644466217e-18 9.15933995315754e-16 1.0
  outer loop
    vertex 312.30805569852384 94.19687330463134 2.4644745316391616
    vertex 299.30805569852384 99.19687330463114 2.464474531639162
    vertex 298.3080556985239 94.19687330463134 2.4644745316391616
  endloop
endfacet
facet normal 7.815174644466217e-18 9.15933995315754e-16 1.0
  outer loop
    vertex 299.30805569852384 99.19687330463114 2.464474531639162
    vertex 312.30805569852384 94.19687330463134 2.4644745316391616
    vertex 312.30805569852384 97.1968733046312 2.464474531639157
  endloop
endfacet
facet normal 7.815174644466217e-18 9.15933995315754e-16 1.0
  outer loop
    vertex 299.30805569852384 99.19687330463114 2.464474531639162
    vertex 312.30805569852384 97.1968733046312 2.464474531639157
    vertex 313.30805569852384 99.19687330463114 2.464474531639162
  endloop
endfacet
facet normal 7.815174644466217e-18 9.15933995315754e-16 1.0
  outer loop
    vertex 313.30805569852384 99.19687330463114 2.464474531639162
    vertex 312.30805569852384 97.1968733046312 2.464474531639157
    vertex 315.30805569852384 97.1968733046312 2.464474531639157
  endloop
endfacet
facet normal 7.815174644466217e-18 9.15933995315754e-16 1.0
  outer loop
    vertex 313.30805569852384 99.19687330463114 2.464474531639162
    vertex 315.30805569852384 97.1968733046312 2.464474531639157
    vertex 313.30805569852384 113.19687330463105 2.4644745316391585
  endloop
endfacet
facet normal 7.815174644466217e-18 9.15933995315754e-16 1.0
  outer loop
    vertex 297.30805569852384 115.19687330463111 2.4644745316391425
    vertex 299.30805569852384 113.19687330463105 2.4644745316391585
    vertex 315.30805569852384 115.19687330463111 2.4644745316391425
  endloop
endfacet
facet normal 7.815174644466217e-18 9.15933995315754e-16 1.0
  outer loop
    vertex 299.30805569852384 113.19687330463105 2.4644745316391585
    vertex 297.30805569852384 115.19687330463111 2.4644745316391425
    vertex 298.3080556985239 94.19687330463134 2.4644745316391616
  endloop
endfacet
facet normal 7.815174644466217e-18 9.15933995315754e-16 1.0
  outer loop
    vertex 298.3080556985239 94.19687330463134 2.4644745316391616
    vertex 297.30805569852384 115.19687330463111 2.4644745316391425
    vertex 298.3080556985239 80.19687330463142 2.46447453163917
  endloop
endfacet
facet normal 7.815174644466217e-18 9.15933995315754e-16 1.0
  outer loop
    vertex 299.30805569852384 113.19687330463105 2.4644745316391585
    vertex 298.3080556985239 94.19687330463134 2.4644745316391616
    vertex 299.30805569852384 99.19687330463114 2.464474531639162
  endloop
endfacet
facet normal 7.815174644466217e-18 9.15933995315754e-16 1.0
  outer loop
    vertex 315.30805569852384 115.19687330463111 2.4644745316391425
    vertex 299.30805569852384 113.19687330463105 2.4644745316391585
    vertex 313.30805569852384 113.19687330463105 2.4644745316391585
  endloop
endfacet
facet normal 7.815174644466217e-18 9.15933995315754e-16 1.0
  outer loop
    vertex 315.30805569852384 115.19687330463111 2.4644745316391425
    vertex 313.30805569852384 113.19687330463105 2.4644745316391585
    vertex 315.30805569852384 97.1968733046312 2.464474531639157
  endloop
endfacet
facet normal 0.9842680723871801 -0.06561787149247886 -0.164044678731197
  outer loop
    vertex 319.30805569852384 74.19687330463131 1.0644745316391493
    vertex 324.30805569852384 119.19687330463094 13.064474531639151
    vertex 321.30805569852384 74.19687330463101 13.064474531639203
  endloop
endfacet
facet normal 0.9842680723871801 -0.06561787149247886 -0.164044678731197
  outer loop
    vertex 324.30805569852384 119.19687330463094 13.064474531639151
    vertex 319.30805569852384 74.19687330463131 1.0644745316391493
    vertex 322.30805569852384 119.19687330463111 1.0644745316391477
  endloop
endfacet
facet normal -1.0 0.0 0.0
  outer loop
    vertex 294.30805569852384 76.22772652840256 13.064474531639197
    vertex 294.30805569852384 74.1968733046313 4.0644745316391715
    vertex 294.30805569852384 74.19687330463101 13.064474531639203
  endloop
endfacet
facet normal -1.0 0.0 0.0
  outer loop
    vertex 294.30805569852384 74.1968733046313 4.0644745316391715
    vertex 294.30805569852384 76.22772652840256 13.064474531639197
    vertex 294.30805569852384 78.19687330463123 4.064474531639175
  endloop
endfacet
facet normal -1.0 0.0 0.0
  outer loop
    vertex 294.30805569852384 78.19687330463123 4.064474531639175
    vertex 294.30805569852384 76.22772652840256 13.064474531639197
    vertex 294.30805569852384 78.19687330463104 13.064474531639227
  endloop
endfacet
facet normal 1.9639280954236386e-29 -2.144118216307333e-15 1.0
  outer loop
    vertex 297.30805569852384 105.41831345504552 13.06447453163918
    vertex 294.30805569852384 115.19687330463093 13.064474531639199
    vertex 294.30805569852384 105.41831345504552 13.06447453163918
  endloop
endfacet
facet normal 1.9639280954236386e-29 -2.144118216307333e-15 1.0
  outer loop
    vertex 294.30805569852384 115.19687330463093 13.064474531639199
    vertex 297.30805569852384 105.41831345504552 13.06447453163918
    vertex 297.30805569852384 115.19687330463093 13.064474531639199
  endloop
endfacet
facet normal 1.0 0.0 0.0
  outer loop
    vertex 278.3080556985239 113.19687330463105 1.0644745316391562
    vertex 278.3080556985239 99.19687330463114 2.464474531639162
    vertex 278.3080556985239 99.19687330463114 1.0644745316391584
  endloop
endfacet
facet normal 1.0 0.0 0.0
  outer loop
    vertex 278.3080556985239 99.19687330463114 2.464474531639162
    vertex 278.3080556985239 113.19687330463105 1.0644745316391562
    vertex 278.3080556985239 113.19687330463105 2.4644745316391585
  endloop
endfacet
facet normal 0.0 1.0 -9.15933995315754e-16
  outer loop
    vertex 258.30805569852384 80.19687330463124 2.4644745316391683
    vertex 272.3080556985239 80.19687330463125 1.0644745316391733
    vertex 258.30805569852384 80.19687330463125 1.0644745316391733
  endloop
endfacet
facet normal 0.0 1.0 -9.15933995315754e-16
  outer loop
    vertex 272.3080556985239 80.19687330463125 1.0644745316391733
    vertex 258.30805569852384 80.19687330463124 2.4644745316391683
    vertex 272.3080556985239 80.19687330463124 2.4644745316391683
  endloop
endfacet
facet normal 0.0 1.0 -9.15933995315754e-16
  outer loop
    vertex 276.3080556985239 78.19687330463123 4.064474531639175
    vertex 294.30805569852384 78.19687330463127 2.4644745316391594
    vertex 276.3080556985239 78.19687330463127 2.4644745316391594
  endloop
endfacet
facet normal 0.0 1.0 -9.15933995315754e-16
  outer loop
    vertex 294.30805569852384 78.19687330463127 2.4644745316391594
    vertex 276.3080556985239 78.19687330463123 4.064474531639175
    vertex 294.30805569852384 78.19687330463123 4.064474531639175
  endloop
endfacet
facet normal 1.0 0.0 0.0
  outer loop
    vertex 258.30805569852384 80.19687330463125 1.0644745316391733
    vertex 258.30805569852384 94.19687330463117 2.464474531639163
    vertex 258.30805569852384 80.19687330463124 2.4644745316391683
  endloop
endfacet
facet normal 1.0 0.0 0.0
  outer loop
    vertex 258.30805569852384 94.19687330463117 2.464474531639163
    vertex 258.30805569852384 80.19687330463125 1.0644745316391733
    vertex 258.30805569852384 94.19687330463118 1.0644745316391613
  endloop
endfacet
facet normal 0.0 -1.0 9.15933995315754e-16
  outer loop
    vertex 294.30805569852384 115.19687330463114 3.064474531639148
    vertex 276.3080556985239 115.19687330463111 2.4644745316391425
    vertex 294.30805569852384 115.19687330463111 2.4644745316391425
  endloop
endfacet
facet normal 0.0 -1.0 9.15933995315754e-16
  outer loop
    vertex 276.3080556985239 115.19687330463111 2.4644745316391425
    vertex 294.30805569852384 115.19687330463114 3.064474531639148
    vertex 276.3080556985239 115.19687330463114 3.064474531639148
  endloop
endfacet
facet normal 0.0 1.0 -9.15933995315754e-16
  outer loop
    vertex 273.3080556985239 87.60218574171256 13.064474531639169
    vertex 276.3080556985239 87.60218574171276 2.46447453163915
    vertex 273.3080556985239 87.60218574171276 2.46447453163915
  endloop
endfacet
facet normal 0.0 1.0 -9.15933995315754e-16
  outer loop
    vertex 276.3080556985239 87.60218574171276 2.46447453163915
    vertex 273.3080556985239 87.60218574171256 13.064474531639169
    vertex 276.3080556985239 87.60218574171256 13.064474531639169
  endloop
endfacet
facet normal -4.798581726740218e-18 -1.0 -2.0955459589799827e-14
  outer loop
    vertex 315.30805569852384 115.19687330463093 13.064474531639199
    vertex 297.30805569852384 115.19687330463111 2.4644745316391425
    vertex 315.30805569852384 115.19687330463111 2.4644745316391425
  endloop
endfacet
facet normal -4.798581726740218e-18 -1.0 -2.0955459589799827e-14
  outer loop
    vertex 297.30805569852384 115.19687330463111 2.4644745316391425
    vertex 315.30805569852384 115.19687330463093 13.064474531639199
    vertex 297.30805569852384 115.19687330463093 13.064474531639199
  endloop
endfacet
facet normal -1.1312548185044533e-15 1.0 1.6049661599737416e-14
  outer loop
    vertex 258.30805569852384 78.19687330463103 13.064474531639227
    vertex 273.3080556985239 78.19687330463127 2.4644745316391594
    vertex 258.30805569852384 78.19687330463125 2.4644745316391594
  endloop
endfacet
facet normal -1.1312548185044533e-15 1.0 1.6049661599737416e-14
  outer loop
    vertex 273.3080556985239 78.19687330463127 2.4644745316391594
    vertex 258.30805569852384 78.19687330463103 13.064474531639227
    vertex 273.3080556985239 78.19687330463104 13.064474531639227
  endloop
endfacet
facet normal 0.0 -1.0 -1.7784385075714223e-14
  outer loop
    vertex 294.30805569852384 115.19687330463093 13.064474531639199
    vertex 276.3080556985239 115.19687330463114 3.064474531639148
    vertex 294.30805569852384 115.19687330463114 3.064474531639148
  endloop
endfacet
facet normal 0.0 -1.0 -1.7784385075714223e-14
  outer loop
    vertex 276.3080556985239 115.19687330463114 3.064474531639148
    vertex 294.30805569852384 115.19687330463093 13.064474531639199
    vertex 276.3080556985239 115.19687330463093 13.064474531639199
  endloop
endfacet
facet normal 0.0 -1.0 9.15933995315754e-16
  outer loop
    vertex 313.30805569852384 113.19687330463105 2.4644745316391585
    vertex 299.30805569852384 113.19687330463105 1.0644745316391562
    vertex 313.30805569852384 113.19687330463105 1.0644745316391562
  endloop
endfacet
facet normal 0.0 -1.0 9.15933995315754e-16
  outer loop
    vertex 299.30805569852384 113.19687330463105 1.0644745316391562
    vertex 313.30805569852384 113.19687330463105 2.4644745316391585
    vertex 299.30805569852384 113.19687330463105 2.4644745316391585
  endloop
endfacet
facet normal 0.0 9.15933995315754e-16 1.0
  outer loop
    vertex 276.3080556985239 87.60218574171276 2.46447453163915
    vertex 273.3080556985239 105.41831345504572 2.46447453163915
    vertex 273.3080556985239 87.60218574171276 2.46447453163915
  endloop
endfacet
facet normal 0.0 9.15933995315754e-16 1.0
  outer loop
    vertex 273.3080556985239 105.41831345504572 2.46447453163915
    vertex 276.3080556985239 87.60218574171276 2.46447453163915
    vertex 276.3080556985239 105.41831345504572 2.46447453163915
  endloop
endfacet
facet normal -1.0 0.0 0.0
  outer loop
    vertex 294.30805569852384 87.60218574171256 13.064474531639169
    vertex 294.30805569852384 78.19687330463123 4.064474531639175
    vertex 294.30805569852384 78.19687330463104 13.064474531639227
  endloop
endfacet
facet normal -1.0 0.0 0.0
  outer loop
    vertex 294.30805569852384 78.19687330463123 4.064474531639175
    vertex 294.30805569852384 87.60218574171256 13.064474531639169
    vertex 294.30805569852384 78.19687330463127 2.4644745316391594
  endloop
endfacet
facet normal -1.0 0.0 0.0
  outer loop
    vertex 294.30805569852384 78.19687330463127 2.4644745316391594
    vertex 294.30805569852384 87.60218574171256 13.064474531639169
    vertex 294.30805569852384 87.60218574171276 2.46447453163915
  endloop
endfacet
facet normal 0.0 9.15933995315754e-16 1.0
  outer loop
    vertex 297.30805569852384 78.19687330463104 13.064474531639227
    vertex 294.30805569852384 87.60218574171256 13.064474531639169
    vertex 294.30805569852384 78.19687330463104 13.064474531639227
  endloop
endfacet
facet normal 0.0 9.15933995315754e-16 1.0
  outer loop
    vertex 294.30805569852384 87.60218574171256 13.064474531639169
    vertex 297.30805569852384 78.19687330463104 13.064474531639227
    vertex 297.30805569852384 87.60218574171256 13.064474531639169
  endloop
endfacet
facet normal 1.0 0.0 0.0
  outer loop
    vertex 297.30805569852384 105.41831345504572 2.46447453163915
    vertex 297.30805569852384 115.19687330463093 13.064474531639199
    vertex 297.30805569852384 105.41831345504552 13.06447453163918
  endloop
endfacet
facet normal 1.0 0.0 0.0
  outer loop
    vertex 297.30805569852384 115.19687330463093 13.064474531639199
    vertex 297.30805569852384 105.41831345504572 2.46447453163915
    vertex 297.30805569852384 115.19687330463111 2.4644745316391425
  endloop
endfacet
facet normal -2.3445523933398654e-17 9.15933995315754e-16 1.0
  outer loop
    vertex 272.3080556985239 94.19687330463117 2.464474531639163
    vertex 258.30805569852384 97.1968733046312 2.464474531639157
    vertex 258.30805569852384 94.19687330463117 2.464474531639163
  endloop
endfacet
facet normal -2.3445523933398654e-17 9.15933995315754e-16 1.0
  outer loop
    vertex 258.30805569852384 97.1968733046312 2.464474531639157
    vertex 272.3080556985239 94.19687330463117 2.464474531639163
    vertex 271.3080556985239 99.19687330463114 2.464474531639162
  endloop
endfacet
facet normal -2.3445523933398654e-17 9.15933995315754e-16 1.0
  outer loop
    vertex 271.3080556985239 99.19687330463114 2.464474531639162
    vertex 272.3080556985239 94.19687330463117 2.464474531639163
    vertex 271.3080556985239 113.19687330463105 2.4644745316391585
  endloop
endfacet
facet normal -2.3445523933398654e-17 9.15933995315754e-16 1.0
  outer loop
    vertex 273.3080556985239 78.19687330463127 2.4644745316391594
    vertex 258.30805569852384 80.19687330463124 2.4644745316391683
    vertex 258.30805569852384 78.19687330463125 2.4644745316391594
  endloop
endfacet
facet normal -2.3445523933398654e-17 9.15933995315754e-16 1.0
  outer loop
    vertex 258.30805569852384 80.19687330463124 2.4644745316391683
    vertex 273.3080556985239 78.19687330463127 2.4644745316391594
    vertex 272.3080556985239 80.19687330463124 2.4644745316391683
  endloop
endfacet
facet normal -2.3445523933398654e-17 9.15933995315754e-16 1.0
  outer loop
    vertex 272.3080556985239 80.19687330463124 2.4644745316391683
    vertex 273.3080556985239 78.19687330463127 2.4644745316391594
    vertex 272.3080556985239 94.19687330463117 2.464474531639163
  endloop
endfacet
facet normal -2.3445523933398654e-17 9.15933995315754e-16 1.0
  outer loop
    vertex 255.30805569852387 115.19687330463111 2.4644745316391425
    vertex 257.30805569852384 113.19687330463105 2.4644745316391585
    vertex 273.3080556985239 115.19687330463111 2.4644745316391425
  endloop
endfacet
facet normal -2.3445523933398654e-17 9.15933995315754e-16 1.0
  outer loop
    vertex 257.30805569852384 113.19687330463105 2.4644745316391585
    vertex 255.30805569852387 115.19687330463111 2.4644745316391425
    vertex 257.30805569852384 99.19687330463114 2.464474531639162
  endloop
endfacet
facet normal -2.3445523933398654e-17 9.15933995315754e-16 1.0
  outer loop
    vertex 273.3080556985239 115.19687330463111 2.4644745316391425
    vertex 257.30805569852384 113.19687330463105 2.4644745316391585
    vertex 271.3080556985239 113.19687330463105 2.4644745316391585
  endloop
endfacet
facet normal -2.3445523933398654e-17 9.15933995315754e-16 1.0
  outer loop
    vertex 273.3080556985239 115.19687330463111 2.4644745316391425
    vertex 271.3080556985239 113.19687330463105 2.4644745316391585
    vertex 272.3080556985239 94.19687330463117 2.464474531639163
  endloop
endfacet
facet normal -2.3445523933398654e-17 9.15933995315754e-16 1.0
  outer loop
    vertex 273.3080556985239 115.19687330463111 2.4644745316391425
    vertex 272.3080556985239 94.19687330463117 2.464474531639163
    vertex 273.3080556985239 78.19687330463127 2.4644745316391594
  endloop
endfacet
facet normal -2.3445523933398654e-17 9.15933995315754e-16 1.0
  outer loop
    vertex 273.3080556985239 115.19687330463111 2.4644745316391425
    vertex 273.3080556985239 78.19687330463127 2.4644745316391594
    vertex 273.3080556985239 87.60218574171276 2.46447453163915
  endloop
endfacet
facet normal -2.3445523933398654e-17 9.15933995315754e-16 1.0
  outer loop
    vertex 273.3080556985239 115.19687330463111 2.4644745316391425
    vertex 273.3080556985239 87.60218574171276 2.46447453163915
    vertex 273.3080556985239 105.41831345504572 2.46447453163915
  endloop
endfacet
facet normal -2.3445523933398654e-17 9.15933995315754e-16 1.0
  outer loop
    vertex 255.30805569852387 97.1968733046312 2.464474531639157
    vertex 257.30805569852384 99.19687330463114 2.464474531639162
    vertex 255.30805569852387 115.19687330463111 2.4644745316391425
  endloop
endfacet
facet normal -2.3445523933398654e-17 9.15933995315754e-16 1.0
  outer loop
    vertex 257.30805569852384 99.19687330463114 2.464474531639162
    vertex 255.30805569852387 97.1968733046312 2.464474531639157
    vertex 258.30805569852384 97.1968733046312 2.464474531639157
  endloop
endfacet
facet normal -2.3445523933398654e-17 9.15933995315754e-16 1.0
  outer loop
    vertex 257.30805569852384 99.19687330463114 2.464474531639162
    vertex 258.30805569852384 97.1968733046312 2.464474531639157
    vertex 271.3080556985239 99.19687330463114 2.464474531639162
  endloop
endfacet
facet normal 0.0 -1.0 9.15933995315754e-16
  outer loop
    vertex 297.30805569852384 105.41831345504552 13.06447453163918
    vertex 294.30805569852384 105.41831345504572 2.46447453163915
    vertex 297.30805569852384 105.41831345504572 2.46447453163915
  endloop
endfacet
facet normal 0.0 -1.0 9.15933995315754e-16
  outer loop
    vertex 294.30805569852384 105.41831345504572 2.46447453163915
    vertex 297.30805569852384 105.41831345504552 13.06447453163918
    vertex 294.30805569852384 105.41831345504552 13.06447453163918
  endloop
endfacet
facet normal 0.0 1.0 -9.15933995315754e-16
  outer loop
    vertex 257.30805569852384 99.19687330463114 2.464474531639162
    vertex 271.3080556985239 99.19687330463114 1.0644745316391584
    vertex 257.30805569852384 99.19687330463114 1.0644745316391584
  endloop
endfacet
facet normal 0.0 1.0 -9.15933995315754e-16
  outer loop
    vertex 271.3080556985239 99.19687330463114 1.0644745316391584
    vertex 257.30805569852384 99.19687330463114 2.464474531639162
    vertex 271.3080556985239 99.19687330463114 2.464474531639162
  endloop
endfacet
facet normal 0.0 -1.0 9.15933995315754e-16
  outer loop
    vertex 312.30805569852384 94.19687330463134 2.4644745316391616
    vertex 298.3080556985239 94.19687330463137 1.0644745316391626
    vertex 312.30805569852384 94.19687330463137 1.0644745316391626
  endloop
endfacet
facet normal 0.0 -1.0 9.15933995315754e-16
  outer loop
    vertex 298.3080556985239 94.19687330463137 1.0644745316391626
    vertex 312.30805569852384 94.19687330463134 2.4644745316391616
    vertex 298.3080556985239 94.19687330463134 2.4644745316391616
  endloop
endfacet
facet normal 0.0 1.0 -9.15933995315754e-16
  outer loop
    vertex 294.30805569852384 87.60218574171256 13.064474531639169
    vertex 297.30805569852384 87.60218574171276 2.46447453163915
    vertex 294.30805569852384 87.60218574171276 2.46447453163915
  endloop
endfacet
facet normal 0.0 1.0 -9.15933995315754e-16
  outer loop
    vertex 297.30805569852384 87.60218574171276 2.46447453163915
    vertex 294.30805569852384 87.60218574171256 13.064474531639169
    vertex 297.30805569852384 87.60218574171256 13.064474531639169
  endloop
endfacet
facet normal 0.0 9.15933995315754e-16 1.0
  outer loop
    vertex 297.30805569852384 87.60218574171276 2.46447453163915
    vertex 294.30805569852384 105.41831345504572 2.46447453163915
    vertex 294.30805569852384 87.60218574171276 2.46447453163915
  endloop
endfacet
facet normal 0.0 9.15933995315754e-16 1.0
  outer loop
    vertex 294.30805569852384 105.41831345504572 2.46447453163915
    vertex 297.30805569852384 87.60218574171276 2.46447453163915
    vertex 297.30805569852384 105.41831345504572 2.46447453163915
  endloop
endfacet
facet normal 0.0 1.0 -9.15933995315754e-16
  outer loop
    vertex 278.3080556985239 80.19687330463124 2.4644745316391683
    vertex 292.3080556985239 80.19687330463125 1.0644745316391733
    vertex 278.3080556985239 80.19687330463125 1.0644745316391733
  endloop
endfacet
facet normal 0.0 1.0 -9.15933995315754e-16
  outer loop
    vertex 292.3080556985239 80.19687330463125 1.0644745316391733
    vertex 278.3080556985239 80.19687330463124 2.4644745316391683
    vertex 292.3080556985239 80.19687330463124 2.4644745316391683
  endloop
endfacet
facet normal 0.0 1.0 -9.15933995315754e-16
  outer loop
    vertex 298.3080556985239 80.19687330463142 2.46447453163917
    vertex 312.30805569852384 80.19687330463144 1.064474531639174
    vertex 298.3080556985239 80.19687330463144 1.064474531639174
  endloop
endfacet
facet normal 0.0 1.0 -9.15933995315754e-16
  outer loop
    vertex 312.30805569852384 80.19687330463144 1.064474531639174
    vertex 298.3080556985239 80.19687330463142 2.46447453163917
    vertex 312.30805569852384 80.19687330463142 2.46447453163917
  endloop
endfacet
facet normal -1.0 0.0 0.0
  outer loop
    vertex 315.30805569852384 115.19687330463093 13.064474531639199
    vertex 315.30805569852384 97.1968733046312 2.464474531639157
    vertex 315.30805569852384 97.19687330463103 13.064474531639164
  endloop
endfacet
facet normal -1.0 0.0 0.0
  outer loop
    vertex 315.30805569852384 97.1968733046312 2.464474531639157
    vertex 315.30805569852384 115.19687330463093 13.064474531639199
    vertex 315.30805569852384 115.19687330463111 2.4644745316391425
  endloop
endfacet
facet normal 1.0 0.0 0.0
  outer loop
    vertex 257.30805569852384 113.19687330463105 1.0644745316391562
    vertex 257.30805569852384 99.19687330463114 2.464474531639162
    vertex 257.30805569852384 99.19687330463114 1.0644745316391584
  endloop
endfacet
facet normal 1.0 0.0 0.0
  outer loop
    vertex 257.30805569852384 99.19687330463114 2.464474531639162
    vertex 257.30805569852384 113.19687330463105 1.0644745316391562
    vertex 257.30805569852384 113.19687330463105 2.4644745316391585
  endloop
endfacet
facet normal -1.113798970261234e-28 1.0 1.7368051441479793e-14
  outer loop
    vertex 255.30805569852387 97.19687330463103 13.064474531639164
    vertex 258.30805569852384 97.1968733046312 2.464474531639157
    vertex 255.30805569852387 97.1968733046312 2.464474531639157
  endloop
endfacet
facet normal -1.113798970261234e-28 1.0 1.7368051441479793e-14
  outer loop
    vertex 258.30805569852384 97.1968733046312 2.464474531639157
    vertex 255.30805569852387 97.19687330463103 13.064474531639164
    vertex 258.30805569852384 97.19687330463103 13.064474531639164
  endloop
endfacet
facet normal 1.5039821240255511e-15 1.0 -9.15933995315754e-16
  outer loop
    vertex 297.30805569852384 78.19687330463104 13.064474531639227
    vertex 312.30805569852384 78.19687330463125 2.4644745316391594
    vertex 297.30805569852384 78.19687330463127 2.4644745316391594
  endloop
endfacet
facet normal 1.5039821240255511e-15 1.0 -9.15933995315754e-16
  outer loop
    vertex 312.30805569852384 78.19687330463125 2.4644745316391594
    vertex 297.30805569852384 78.19687330463104 13.064474531639227
    vertex 312.30805569852384 78.19687330463103 13.064474531639226
  endloop
endfacet
facet normal 0.0 -1.0 9.15933995315754e-16
  outer loop
    vertex 292.3080556985239 94.19687330463117 2.464474531639163
    vertex 278.3080556985239 94.19687330463118 1.0644745316391613
    vertex 292.3080556985239 94.19687330463118 1.0644745316391613
  endloop
endfacet
facet normal 0.0 -1.0 9.15933995315754e-16
  outer loop
    vertex 278.3080556985239 94.19687330463118 1.0644745316391613
    vertex 292.3080556985239 94.19687330463117 2.464474531639163
    vertex 278.3080556985239 94.19687330463117 2.464474531639163
  endloop
endfacet
facet normal 1.0 0.0 0.0
  outer loop
    vertex 255.30805569852387 97.1968733046312 2.464474531639157
    vertex 255.30805569852387 115.19687330463093 13.064474531639199
    vertex 255.30805569852387 97.19687330463103 13.064474531639164
  endloop
endfacet
facet normal 1.0 0.0 0.0
  outer loop
    vertex 255.30805569852387 115.19687330463093 13.064474531639199
    vertex 255.30805569852387 97.1968733046312 2.464474531639157
    vertex 255.30805569852387 115.19687330463111 2.4644745316391425
  endloop
endfacet
facet normal 0.0 -1.0 9.15933995315754e-16
  outer loop
    vertex 272.3080556985239 94.19687330463117 2.464474531639163
    vertex 258.30805569852384 94.19687330463118 1.0644745316391613
    vertex 272.3080556985239 94.19687330463118 1.0644745316391613
  endloop
endfacet
facet normal 0.0 -1.0 9.15933995315754e-16
  outer loop
    vertex 258.30805569852384 94.19687330463118 1.0644745316391613
    vertex 272.3080556985239 94.19687330463117 2.464474531639163
    vertex 258.30805569852384 94.19687330463117 2.464474531639163
  endloop
endfacet
facet normal 0.0 -2.081668171172168e-17 -1.0
  outer loop
    vertex 272.3080556985239 80.19687330463125 1.0644745316391733
    vertex 258.30805569852384 79.19687330463131 1.0644745316391542
    vertex 258.30805569852384 80.19687330463125 1.0644745316391733
  endloop
endfacet
facet normal 0.0 -2.081668171172168e-17 -1.0
  outer loop
    vertex 258.30805569852384 79.19687330463131 1.0644745316391542
    vertex 272.3080556985239 80.19687330463125 1.0644745316391733
    vertex 312.30805569852384 79.19687330463131 1.0644745316391542
  endloop
endfacet
facet normal 0.0 -2.081668171172168e-17 -1.0
  outer loop
    vertex 312.30805569852384 79.19687330463131 1.0644745316391542
    vertex 272.3080556985239 80.19687330463125 1.0644745316391733
    vertex 278.3080556985239 80.19687330463125 1.0644745316391733
  endloop
endfacet
facet normal 0.0 -2.081668171172168e-17 -1.0
  outer loop
    vertex 278.3080556985239 80.19687330463125 1.0644745316391733
    vertex 272.3080556985239 80.19687330463125 1.0644745316391733
    vertex 278.3080556985239 113.19687330463105 1.0644745316391562
  endloop
endfacet
facet normal 0.0 -2.081668171172168e-17 -1.0
  outer loop
    vertex 278.3080556985239 80.19687330463125 1.0644745316391733
    vertex 278.3080556985239 113.19687330463105 1.0644745316391562
    vertex 278.3080556985239 99.19687330463114 1.0644745316391584
  endloop
endfacet
facet normal 0.0 -2.081668171172168e-17 -1.0
  outer loop
    vertex 278.3080556985239 80.19687330463125 1.0644745316391733
    vertex 278.3080556985239 99.19687330463114 1.0644745316391584
    vertex 278.3080556985239 94.19687330463118 1.0644745316391613
  endloop
endfacet
facet normal 0.0 -2.081668171172168e-17 -1.0
  outer loop
    vertex 312.30805569852384 79.19687330463131 1.0644745316391542
    vertex 278.3080556985239 80.19687330463125 1.0644745316391733
    vertex 292.3080556985239 80.19687330463125 1.0644745316391733
  endloop
endfacet
facet normal 0.0 -2.081668171172168e-17 -1.0
  outer loop
    vertex 312.30805569852384 79.19687330463131 1.0644745316391542
    vertex 292.3080556985239 80.19687330463125 1.0644745316391733
    vertex 298.3080556985239 80.19687330463144 1.064474531639174
  endloop
endfacet
facet normal 0.0 -2.081668171172168e-17 -1.0
  outer loop
    vertex 298.3080556985239 80.19687330463144 1.064474531639174
    vertex 292.3080556985239 80.19687330463125 1.0644745316391733
    vertex 298.3080556985239 94.19687330463137 1.0644745316391626
  endloop
endfacet
facet normal 0.0 -2.081668171172168e-17 -1.0
  outer loop
    vertex 312.30805569852384 79.19687330463131 1.0644745316391542
    vertex 298.3080556985239 80.19687330463144 1.064474531639174
    vertex 312.30805569852384 80.19687330463144 1.064474531639174
  endloop
endfacet
facet normal 0.0 -2.081668171172168e-17 -1.0
  outer loop
    vertex 298.3080556985239 94.19687330463137 1.0644745316391626
    vertex 299.30805569852384 99.19687330463114 1.0644745316391584
    vertex 312.30805569852384 94.19687330463137 1.0644745316391626
  endloop
endfacet
facet normal 0.0 -2.081668171172168e-17 -1.0
  outer loop
    vertex 299.30805569852384 99.19687330463114 1.0644745316391584
    vertex 298.3080556985239 94.19687330463137 1.0644745316391626
    vertex 299.30805569852384 113.19687330463105 1.0644745316391562
  endloop
endfacet
facet normal 0.0 -2.081668171172168e-17 -1.0
  outer loop
    vertex 312.30805569852384 94.19687330463137 1.0644745316391626
    vertex 299.30805569852384 99.19687330463114 1.0644745316391584
    vertex 313.30805569852384 99.19687330463114 1.0644745316391584
  endloop
endfacet
facet normal 0.0 -2.081668171172168e-17 -1.0
  outer loop
    vertex 312.30805569852384 94.19687330463137 1.0644745316391626
    vertex 313.30805569852384 99.19687330463114 1.0644745316391584
    vertex 312.30805569852384 80.19687330463144 1.064474531639174
  endloop
endfacet
facet normal 0.0 -2.081668171172168e-17 -1.0
  outer loop
    vertex 312.30805569852384 80.19687330463144 1.064474531639174
    vertex 313.30805569852384 99.19687330463114 1.0644745316391584
    vertex 312.30805569852384 79.19687330463131 1.0644745316391542
  endloop
endfacet
facet normal 0.0 -2.081668171172168e-17 -1.0
  outer loop
    vertex 248.30805569852387 119.19687330463111 1.0644745316391477
    vertex 257.30805569852384 113.19687330463105 1.0644745316391562
    vertex 251.30805569852387 74.19687330463131 1.0644745316391493
  endloop
endfacet
facet normal 0.0 -2.081668171172168e-17 -1.0
  outer loop
    vertex 257.30805569852384 113.19687330463105 1.0644745316391562
    vertex 248.30805569852387 119.19687330463111 1.0644745316391477
    vertex 322.30805569852384 119.19687330463111 1.0644745316391477
  endloop
endfacet
facet normal 0.0 -2.081668171172168e-17 -1.0
  outer loop
    vertex 257.30805569852384 113.19687330463105 1.0644745316391562
    vertex 322.30805569852384 119.19687330463111 1.0644745316391477
    vertex 271.3080556985239 113.19687330463105 1.0644745316391562
  endloop
endfacet
facet normal 0.0 -2.081668171172168e-17 -1.0
  outer loop
    vertex 271.3080556985239 113.19687330463105 1.0644745316391562
    vertex 322.30805569852384 119.19687330463111 1.0644745316391477
    vertex 278.3080556985239 113.19687330463105 1.0644745316391562
  endloop
endfacet
facet normal 0.0 -2.081668171172168e-17 -1.0
  outer loop
    vertex 271.3080556985239 113.19687330463105 1.0644745316391562
    vertex 278.3080556985239 113.19687330463105 1.0644745316391562
    vertex 271.3080556985239 99.19687330463114 1.0644745316391584
  endloop
endfacet
facet normal 0.0 -2.081668171172168e-17 -1.0
  outer loop
    vertex 271.3080556985239 99.19687330463114 1.0644745316391584
    vertex 278.3080556985239 113.19687330463105 1.0644745316391562
    vertex 272.3080556985239 94.19687330463118 1.0644745316391613
  endloop
endfacet
facet normal 0.0 -2.081668171172168e-17 -1.0
  outer loop
    vertex 272.3080556985239 94.19687330463118 1.0644745316391613
    vertex 278.3080556985239 113.19687330463105 1.0644745316391562
    vertex 272.3080556985239 80.19687330463125 1.0644745316391733
  endloop
endfacet
facet normal 0.0 -2.081668171172168e-17 -1.0
  outer loop
    vertex 278.3080556985239 113.19687330463105 1.0644745316391562
    vertex 322.30805569852384 119.19687330463111 1.0644745316391477
    vertex 292.30805569852384 113.19687330463105 1.0644745316391562
  endloop
endfacet
facet normal 0.0 -2.081668171172168e-17 -1.0
  outer loop
    vertex 292.30805569852384 113.19687330463105 1.0644745316391562
    vertex 322.30805569852384 119.19687330463111 1.0644745316391477
    vertex 299.30805569852384 113.19687330463105 1.0644745316391562
  endloop
endfacet
facet normal 0.0 -2.081668171172168e-17 -1.0
  outer loop
    vertex 292.30805569852384 113.19687330463105 1.0644745316391562
    vertex 299.30805569852384 113.19687330463105 1.0644745316391562
    vertex 292.30805569852384 99.19687330463114 1.0644745316391584
  endloop
endfacet
facet normal 0.0 -2.081668171172168e-17 -1.0
  outer loop
    vertex 292.30805569852384 99.19687330463114 1.0644745316391584
    vertex 299.30805569852384 113.19687330463105 1.0644745316391562
    vertex 292.3080556985239 94.19687330463118 1.0644745316391613
  endloop
endfacet
facet normal 0.0 -2.081668171172168e-17 -1.0
  outer loop
    vertex 292.3080556985239 94.19687330463118 1.0644745316391613
    vertex 299.30805569852384 113.19687330463105 1.0644745316391562
    vertex 292.3080556985239 80.19687330463125 1.0644745316391733
  endloop
endfacet
facet normal 0.0 -2.081668171172168e-17 -1.0
  outer loop
    vertex 292.3080556985239 80.19687330463125 1.0644745316391733
    vertex 299.30805569852384 113.19687330463105 1.0644745316391562
    vertex 298.3080556985239 94.19687330463137 1.0644745316391626
  endloop
endfacet
facet normal 0.0 -2.081668171172168e-17 -1.0
  outer loop
    vertex 299.30805569852384 113.19687330463105 1.0644745316391562
    vertex 322.30805569852384 119.19687330463111 1.0644745316391477
    vertex 313.30805569852384 113.19687330463105 1.0644745316391562
  endloop
endfacet
facet normal 0.0 -2.081668171172168e-17 -1.0
  outer loop
    vertex 313.30805569852384 113.19687330463105 1.0644745316391562
    vertex 322.30805569852384 119.19687330463111 1.0644745316391477
    vertex 313.30805569852384 99.19687330463114 1.0644745316391584
  endloop
endfacet
facet normal 0.0 -2.081668171172168e-17 -1.0
  outer loop
    vertex 313.30805569852384 99.19687330463114 1.0644745316391584
    vertex 322.30805569852384 119.19687330463111 1.0644745316391477
    vertex 319.30805569852384 74.19687330463131 1.0644745316391493
  endloop
endfacet
facet normal 0.0 -2.081668171172168e-17 -1.0
  outer loop
    vertex 251.30805569852387 74.19687330463131 1.0644745316391493
    vertex 258.30805569852384 79.19687330463131 1.0644745316391542
    vertex 319.30805569852384 74.19687330463131 1.0644745316391493
  endloop
endfacet
facet normal 0.0 -2.081668171172168e-17 -1.0
  outer loop
    vertex 258.30805569852384 79.19687330463131 1.0644745316391542
    vertex 251.30805569852387 74.19687330463131 1.0644745316391493
    vertex 257.30805569852384 99.19687330463114 1.0644745316391584
  endloop
endfacet
facet normal 0.0 -2.081668171172168e-17 -1.0
  outer loop
    vertex 257.30805569852384 99.19687330463114 1.0644745316391584
    vertex 251.30805569852387 74.19687330463131 1.0644745316391493
    vertex 257.30805569852384 113.19687330463105 1.0644745316391562
  endloop
endfacet
facet normal 0.0 -2.081668171172168e-17 -1.0
  outer loop
    vertex 258.30805569852384 79.19687330463131 1.0644745316391542
    vertex 257.30805569852384 99.19687330463114 1.0644745316391584
    vertex 258.30805569852384 94.19687330463118 1.0644745316391613
  endloop
endfacet
facet normal 0.0 -2.081668171172168e-17 -1.0
  outer loop
    vertex 258.30805569852384 79.19687330463131 1.0644745316391542
    vertex 258.30805569852384 94.19687330463118 1.0644745316391613
    vertex 258.30805569852384 80.19687330463125 1.0644745316391733
  endloop
endfacet
facet normal 0.0 -2.081668171172168e-17 -1.0
  outer loop
    vertex 319.30805569852384 74.19687330463131 1.0644745316391493
    vertex 258.30805569852384 79.19687330463131 1.0644745316391542
    vertex 312.30805569852384 79.19687330463131 1.0644745316391542
  endloop
endfacet
facet normal 0.0 -2.081668171172168e-17 -1.0
  outer loop
    vertex 319.30805569852384 74.19687330463131 1.0644745316391493
    vertex 312.30805569852384 79.19687330463131 1.0644745316391542
    vertex 313.30805569852384 99.19687330463114 1.0644745316391584
  endloop
endfacet
facet normal 0.0 -2.081668171172168e-17 -1.0
  outer loop
    vertex 292.30805569852384 99.19687330463114 1.0644745316391584
    vertex 278.3080556985239 94.19687330463118 1.0644745316391613
    vertex 278.3080556985239 99.19687330463114 1.0644745316391584
  endloop
endfacet
facet normal 0.0 -2.081668171172168e-17 -1.0
  outer loop
    vertex 278.3080556985239 94.19687330463118 1.0644745316391613
    vertex 292.30805569852384 99.19687330463114 1.0644745316391584
    vertex 292.3080556985239 94.19687330463118 1.0644745316391613
  endloop
endfacet
facet normal 0.0 -2.081668171172168e-17 -1.0
  outer loop
    vertex 271.3080556985239 99.19687330463114 1.0644745316391584
    vertex 258.30805569852384 94.19687330463118 1.0644745316391613
    vertex 257.30805569852384 99.19687330463114 1.0644745316391584
  endloop
endfacet
facet normal 0.0 -2.081668171172168e-17 -1.0
  outer loop
    vertex 258.30805569852384 94.19687330463118 1.0644745316391613
    vertex 271.3080556985239 99.19687330463114 1.0644745316391584
    vertex 272.3080556985239 94.19687330463118 1.0644745316391613
  endloop
endfacet
facet normal 1.0 0.0 0.0
  outer loop
    vertex 278.3080556985239 80.19687330463125 1.0644745316391733
    vertex 278.3080556985239 94.19687330463117 2.464474531639163
    vertex 278.3080556985239 80.19687330463124 2.4644745316391683
  endloop
endfacet
facet normal 1.0 0.0 0.0
  outer loop
    vertex 278.3080556985239 94.19687330463117 2.464474531639163
    vertex 278.3080556985239 80.19687330463125 1.0644745316391733
    vertex 278.3080556985239 94.19687330463118 1.0644745316391613
  endloop
endfacet
endsolid GamerPad
